<?xml version="1.0" encoding="UTF-8"?>
<svg width="74px" height="30px" viewBox="0 0 74 30" version="1.1" xmlns="http://www.w3.org/2000/svg" xmlns:xlink="http://www.w3.org/1999/xlink">
    <g stroke="none" stroke-width="1" fill="none" fill-rule="evenodd">
        <path d="M14.21,25.17 L9.29,25.17 L9.29,20.7 C9.29,19.8991871 8.64081289,19.25 7.84,19.25 C7.03918711,19.25 6.39,19.8991871 6.39,20.7 L6.39,25.17 L1.45,25.17 C0.649187113,25.17 -5.68434189e-14,25.8191871 -5.68434189e-14,26.62 C-5.68434189e-14,27.4208129 0.649187113,28.07 1.45,28.07 L14.21,28.07 C15.0108129,28.07 15.6599999,27.4208129 15.6599999,26.62 C15.6599999,25.8191871 15.0108129,25.17 14.21,25.17 M4.51,9.15 C4.51,4.55 6.59,3.87 7.84,3.87 C9.08,3.87 11.17,4.56 11.17,9.15 L11.17,9.51 C11.17,14.11 9.08,14.79 7.84,14.79 C6.59,14.79 4.5,14.1 4.5,9.51 L4.5,9.15 L4.51,9.15 Z M7.84,17.69 C11.68,17.69 14.07,14.56 14.07,9.51 L14.07,9.15 C14.07,4.1 11.68,0.97 7.84,0.97 C3.99,0.97 1.6,4.1 1.6,9.15 L1.6,9.51 C1.6,14.56 3.99,17.7 7.84,17.7 L7.84,17.69 Z M33.38,10.35 L17.82,10.35 C17.0191871,10.35 16.37,10.9991871 16.37,11.8 C16.37,12.6008129 17.0191871,13.25 17.82,13.25 L33.38,13.25 C34.1808129,13.25 34.83,12.6008129 34.83,11.8 C34.83,10.9991871 34.1808129,10.35 33.38,10.35 M31.83,25.85 C24.75,27.68 22.38,26.64 21.69,26.1 C21.24,25.75 21.04,25.3 21.04,24.62 L21.04,23.75 L31.29,23.75 C32.09,23.75 32.75,23.1 32.75,22.3 L32.75,17.22 C32.75,16.42 32.09,15.77 31.29,15.77 L19.59,15.77 C18.7891871,15.77 18.14,16.4191871 18.14,17.22 C18.14,18.0208129 18.7891871,18.67 19.59,18.67 L29.84,18.67 L29.84,20.85 L19.58,20.85 C18.78,20.85 18.13,21.5 18.13,22.3 L18.13,24.62 C18.0838793,26.0923231 18.7456617,27.4976814 19.91,28.4 C21.11,29.33 22.85,29.79 25.12,29.79 C27.17,29.79 29.66,29.41 32.56,28.66 C33.0637445,28.5295981 33.459655,28.1403572 33.5985958,27.6389007 C33.7375367,27.1374442 33.5983995,26.5999553 33.2335958,26.2289007 C32.8687922,25.8578462 32.3337445,25.709598 31.83,25.84 M20.31,7.83 L31.11,7.83 C31.9108129,7.83 32.56,7.18081289 32.56,6.38 C32.56,5.57918711 31.9108129,4.93 31.11,4.93 L21.76,4.93 L21.76,1.45 C21.76,0.649187113 21.1108129,0 20.31,0 C19.5091871,0 18.86,0.649187113 18.86,1.45 L18.86,6.38 C18.86,7.18 19.51,7.83 20.31,7.83 M71.51,0 C72.3384271,-1.52179594e-16 73.01,0.671572875 73.01,1.5 L73.01,13.5 C73.01,14.3284271 72.3384271,15 71.51,15 C70.6815729,15 70.01,14.3284271 70.01,13.5 L70.01,1.5 C70.01,0.671572875 70.6815729,-5.13954221e-16 71.51,0 Z M64.51,13.28 C64.6886328,13.7676675 65.1138638,14.1229914 65.6255127,14.2121247 C66.1371616,14.3012579 66.6574966,14.110659 66.9905127,13.7121247 C67.3235288,13.3135904 67.4186328,12.7676675 67.24,12.28 C67.19,12.15 66.24,9.6 63.86,7.78 L67.56,3.68 C67.9445815,3.25272957 68.0404349,2.63861026 67.8043529,2.11446501 C67.568271,1.59031976 67.0448385,1.25513501 66.47,1.25994774 L57.42,1.25994774 C56.6191871,1.25994774 55.97,1.90918711 55.97,2.71 C55.97,3.51081289 56.6191871,4.16 57.42,4.16 L63.22,4.16 L56.34,11.8 C55.8015224,12.3964675 55.8485325,13.3165224 56.445,13.855 C57.0414675,14.3934776 57.9615224,14.3464675 58.5,13.75 L61.91,9.95 C63.0593997,10.8069693 63.9573809,11.9570759 64.51,13.28 M69.57,26.52 L62.56,26.52 C62.3425225,26.52 62.1339523,26.4336074 61.9801724,26.2798276 C61.8263926,26.1260477 61.74,25.9174775 61.74,25.7 L61.74,23.75 L70.39,23.75 L70.39,25.7 C70.39,26.15 70.02,26.52 69.57,26.52 M71.84,17.15 C71.04,17.15 70.39,17.8 70.39,18.6 L70.39,20.85 L61.74,20.85 L61.74,18.6 C61.74,17.7991871 61.0908129,17.15 60.29,17.15 C59.4891871,17.15 58.84,17.7991871 58.84,18.6 L58.84,25.7 C58.8454946,27.752219 60.507781,29.4145054 62.56,29.42 L69.57,29.42 C71.622219,29.4145054 73.2845054,27.752219 73.29,25.7 L73.29,18.6 C73.29,17.8 72.64,17.15 71.84,17.15 M42.47,3.87 C44.69,3.87 44.8,8.11 44.8,8.95 C44.8,9.8 44.69,14.04 42.47,14.04 C40.26,14.04 40.15,9.8 40.15,8.96 C40.15,8.1 40.26,3.87 42.47,3.87 M42.47,16.94 C44.23,16.94 45.7,16.01 46.61,14.32 C47.32,12.98 47.71,11.12 47.71,8.96 C47.71,6.8 47.32,4.94 46.61,3.59 C45.8485738,1.99327367 44.238978,0.974640614 42.47,0.97 C40.71,0.97 39.25,1.9 38.34,3.59 C37.62,4.94 37.24,6.79 37.24,8.96 C37.24,11.13 37.62,12.97 38.34,14.32 C39.0979798,15.9151491 40.7039317,16.933937 42.47,16.94 M51.41,0.49 C50.61,0.49 49.96,1.14 49.96,1.94 L49.96,19.72 C48.03,20.32 44.21,20.85 39.58,20.85 L37.38,20.85 C36.5791871,20.85 35.9300001,21.4991871 35.9300001,22.3 C35.9300001,23.1008129 36.5791871,23.75 37.38,23.75 L39.58,23.75 C42.22,23.75 46.79,23.52 49.96,22.73 L49.96,27.57 C49.9600001,28.3708128 50.6091872,29.0199999 51.41,29.0199999 C52.2108128,29.0199999 52.86,28.3708128 52.86,27.57 L52.86,1.94 C52.86,1.14 52.21,0.49 51.41,0.49" fill="#000000" fill-rule="nonzero"></path>
    </g>
</svg>
